<svg width="48" height="48" viewBox="0 0 24 24" fill="none" xmlns="http://www.w3.org/2000/svg">
<path fill-rule="evenodd" clip-rule="evenodd" d="M12 21.0001C16.9706 21.0001 21 16.9707 21 12.0001C21 7.02957 16.9706 3.00012 12 3.00012C7.02944 3.00012 3 7.02957 3 12.0001C3 16.9707 7.02944 21.0001 12 21.0001ZM12 23.0001C18.0751 23.0001 23 18.0752 23 12.0001C23 5.92499 18.0751 1.00012 12 1.00012C5.92487 1.00012 1 5.92499 1 12.0001C1 18.0752 5.92487 23.0001 12 23.0001Z" fill="#61DAFB"/>
<ellipse rx="2.5" ry="5.5" transform="matrix(0.866025 0.5 0.5 -0.866025 12 12)" stroke="#61DAFB" stroke-width="1.5"/>
<ellipse rx="2.5" ry="5.5" transform="matrix(0.866025 -0.5 -0.5 -0.866025 12 12)" stroke="#61DAFB" stroke-width="1.5"/>
<ellipse rx="2.5" ry="5.5" transform="matrix(0 1 -1 0 12 12)" stroke="#61DAFB" stroke-width="1.5"/>
<circle cx="12" cy="12" r="1.5" fill="#61DAFB"/>
</svg>
