<svg width="518" height="80" viewBox="0 0 518 80" fill="none" xmlns="http://www.w3.org/2000/svg">
<path d="M122.678 21.4558C127.098 21.4558 130.742 21.9966 133.611 23.0781C136.479 24.1596 138.618 25.8054 140.029 28.0154C141.44 30.1785 142.145 32.9293 142.145 36.2678C142.145 38.713 141.675 40.8055 140.734 42.5453C139.841 44.2851 138.665 45.7428 137.208 46.9184C135.75 48.0469 134.175 48.9638 132.482 49.6692L146.941 71.8166H136.785L124.723 51.9262H117.388V71.8166H108.36V21.4558H122.678ZM122.114 29.0029H117.388V44.5202H122.396C124.888 44.5202 126.91 44.2146 128.462 43.6033C130.013 42.992 131.142 42.0986 131.847 40.923C132.6 39.7475 132.976 38.2898 132.976 36.55C132.976 34.7161 132.576 33.2584 131.777 32.1769C130.977 31.0484 129.778 30.249 128.179 29.7788C126.628 29.2615 124.606 29.0029 122.114 29.0029Z" fill="#0D162F"/>
<path d="M167.078 32.8822C170.51 32.8822 173.449 33.5876 175.894 34.9982C178.386 36.3619 180.314 38.3368 181.678 40.923C183.042 43.4622 183.723 46.5657 183.723 50.2334V54.7476H158.472C158.566 58.2272 159.53 60.931 161.364 62.8589C163.198 64.7398 165.737 65.6802 168.982 65.6802C171.474 65.6802 173.684 65.4451 175.612 64.9749C177.587 64.4577 179.609 63.7288 181.678 62.7884V69.9122C179.797 70.8057 177.846 71.464 175.824 71.8872C173.802 72.3104 171.38 72.522 168.559 72.522C164.844 72.522 161.529 71.8166 158.614 70.406C155.745 68.9483 153.488 66.7617 151.842 63.8464C150.244 60.931 149.444 57.3103 149.444 52.9842C149.444 48.6112 150.173 44.9434 151.631 41.981C153.135 38.9716 155.204 36.7145 157.838 35.2098C160.471 33.6581 163.551 32.8822 167.078 32.8822ZM167.078 39.4418C164.726 39.4418 162.798 40.2177 161.294 41.7694C159.836 43.2741 158.966 45.5312 158.684 48.5406H175.118C175.118 46.7538 174.813 45.1785 174.201 43.8149C173.637 42.4513 172.767 41.3933 171.592 40.6409C170.416 39.8415 168.911 39.4418 167.078 39.4418Z" fill="#0D162F"/>
<path d="M200.162 71.8166H191.274V18.2113H200.162V71.8166Z" fill="#0D162F"/>
<path d="M225.491 32.8822C228.923 32.8822 231.862 33.5876 234.307 34.9982C236.8 36.3619 238.727 38.3368 240.091 40.923C241.455 43.4622 242.137 46.5657 242.137 50.2334V54.7476H216.886C216.98 58.2272 217.944 60.931 219.777 62.8589C221.611 64.7398 224.151 65.6802 227.395 65.6802C229.887 65.6802 232.097 65.4451 234.025 64.9749C236 64.4577 238.022 63.7288 240.091 62.7884V69.9122C238.21 70.8057 236.259 71.464 234.237 71.8872C232.215 72.3104 229.793 72.522 226.972 72.522C223.257 72.522 219.942 71.8166 217.027 70.406C214.158 68.9483 211.901 66.7617 210.255 63.8464C208.657 60.931 207.857 57.3103 207.857 52.9842C207.857 48.6112 208.586 44.9434 210.044 41.981C211.549 38.9716 213.618 36.7145 216.251 35.2098C218.884 33.6581 221.964 32.8822 225.491 32.8822ZM225.491 39.4418C223.14 39.4418 221.212 40.2177 219.707 41.7694C218.249 43.2741 217.379 45.5312 217.097 48.5406H233.531C233.531 46.7538 233.226 45.1785 232.615 43.8149C232.05 42.4513 231.18 41.3933 230.005 40.6409C228.829 39.8415 227.325 39.4418 225.491 39.4418Z" fill="#0D162F"/>
<path d="M300.638 32.8822C305.576 32.8822 309.314 33.9637 311.853 36.1268C314.439 38.2428 315.733 41.5814 315.733 46.1425V71.8166H307.41V66.5266C306.328 67.8903 305.2 69.0423 304.024 69.9828C302.896 70.8762 301.579 71.511 300.074 71.8872C298.617 72.3104 296.83 72.522 294.714 72.522C292.457 72.522 290.411 72.0988 288.577 71.2524C286.79 70.406 285.38 69.1129 284.345 67.373C283.311 65.5862 282.794 63.3526 282.794 60.6724C282.794 56.7225 284.228 53.7601 287.096 51.7852C290.011 49.7632 294.408 48.6582 300.286 48.4701L306.916 48.2585V46.3541C306.916 43.9089 306.328 42.1691 305.153 41.1346C303.977 40.1001 302.331 39.5829 300.215 39.5829C298.287 39.5829 296.43 39.865 294.643 40.4293C292.856 40.9936 291.116 41.6519 289.424 42.4042L286.602 36.1973C288.483 35.2098 290.623 34.4105 293.021 33.7992C295.466 33.1879 298.005 32.8822 300.638 32.8822ZM302.261 53.9012C298.358 54.0422 295.654 54.7241 294.149 55.9466C292.645 57.1222 291.892 58.7209 291.892 60.7429C291.892 62.5298 292.433 63.8229 293.515 64.6222C294.596 65.4216 295.983 65.8213 297.676 65.8213C300.262 65.8213 302.449 65.0925 304.236 63.6348C306.023 62.1301 306.916 59.92 306.916 57.0046V53.7601L302.261 53.9012Z" fill="#0D162F"/>
<path d="M345.913 32.8822C350.192 32.8822 353.531 33.9873 355.929 36.1973C358.374 38.4074 359.597 41.981 359.597 46.9184V71.8166H350.709V48.6817C350.709 45.8133 350.145 43.6738 349.017 42.2632C347.888 40.8055 346.101 40.0766 343.656 40.0766C340.082 40.0766 337.637 41.2052 336.321 43.4622C335.004 45.6723 334.346 48.8933 334.346 53.1253V71.8166H325.458V33.5876H333.57V38.5954C334.416 37.2788 335.451 36.1973 336.673 35.3509C337.896 34.5045 339.259 33.8932 340.764 33.517C342.269 33.0938 344.314 32.8822 345.913 32.8822Z" fill="#0D162F"/>
<path d="M384.749 72.522C381.128 72.522 377.978 71.8401 375.297 70.4765C372.664 69.0658 370.619 66.9263 369.161 64.058C367.75 61.1426 367.045 57.4278 367.045 52.9137C367.045 48.2115 367.821 44.4027 369.373 41.4873C370.971 38.5249 373.158 36.3619 375.932 34.9982C378.707 33.5876 381.881 32.8822 385.454 32.8822C387.852 32.8822 389.992 33.1173 391.873 33.5876C393.754 34.0578 395.352 34.6221 396.669 35.2804L394.059 42.2632C392.602 41.6989 391.144 41.2287 389.686 40.8525C388.229 40.4293 386.818 40.2177 385.454 40.2177C383.338 40.2177 381.575 40.6879 380.164 41.6284C378.801 42.5688 377.79 43.9795 377.131 45.8604C376.473 47.6942 376.144 50.0218 376.144 52.8432C376.144 55.5705 376.473 57.851 377.131 59.6849C377.837 61.5188 378.871 62.9059 380.235 63.8464C381.598 64.7398 383.291 65.1865 385.313 65.1865C387.476 65.1865 389.381 64.9279 391.026 64.4106C392.672 63.8934 394.224 63.1881 395.682 62.2946V69.9828C394.224 70.8762 392.649 71.511 390.956 71.8872C389.31 72.3104 387.241 72.522 384.749 72.522Z" fill="#0D162F"/>
<path d="M418.603 32.8822C422.036 32.8822 424.975 33.5876 427.42 34.9982C429.912 36.3619 431.84 38.3368 433.204 40.923C434.567 43.4622 435.249 46.5657 435.249 50.2334V54.7476H409.998C410.092 58.2272 411.056 60.931 412.89 62.8589C414.724 64.7398 417.263 65.6802 420.508 65.6802C423 65.6802 425.21 65.4451 427.138 64.9749C429.113 64.4577 431.135 63.7288 433.204 62.7884V69.9122C431.323 70.8057 429.371 71.464 427.349 71.8872C425.327 72.3104 422.906 72.522 420.084 72.522C416.37 72.522 413.055 71.8166 410.139 70.406C407.271 68.9483 405.014 66.7617 403.368 63.8464C401.769 60.931 400.97 57.3103 400.97 52.9842C400.97 48.6112 401.699 44.9434 403.156 41.981C404.661 38.9716 406.73 36.7145 409.363 35.2098C411.997 33.6581 415.077 32.8822 418.603 32.8822ZM418.603 39.4418C416.252 39.4418 414.324 40.2177 412.819 41.7694C411.362 43.2741 410.492 45.5312 410.21 48.5406H426.644C426.644 46.7538 426.338 45.1785 425.727 43.8149C425.163 42.4513 424.293 41.3933 423.117 40.6409C421.942 39.8415 420.437 39.4418 418.603 39.4418Z" fill="#0D162F"/>
<path d="M491.663 71.8166L487.078 58.4858H468.105L463.591 71.8166H453.998L472.478 21.2442H482.776L501.256 71.8166H491.663ZM480.378 37.749C480.19 37.0907 479.908 36.1973 479.531 35.0688C479.155 33.9402 478.779 32.7882 478.403 31.6126C478.074 30.3901 477.815 29.3791 477.627 28.5797C477.392 29.5201 477.086 30.6017 476.71 31.8242C476.381 33.0468 476.052 34.1989 475.723 35.2804C475.44 36.3619 475.205 37.1848 475.017 37.749L470.574 50.7272H484.751L480.378 37.749Z" fill="#0D162F"/>
<path d="M517.471 71.8166H508.443V66.6677V64.4106V28.9324V26.6048V21.4558H517.471V26.6048V28.9324V64.4106V66.6677V71.8166Z" fill="#0D162F"/>
<path d="M242.597 33.5876L257.127 71.8167H266.578L281.108 33.5876H271.727L264.109 55.6646L261.852 62.5001L259.595 55.6646L251.978 33.5876H242.597Z" fill="#0D162F"/>
<path d="M53.336 53.328C68.0621 53.328 80 41.3901 80 26.664C80 11.9379 68.0621 0 53.336 0C38.6099 0 26.672 11.9379 26.672 26.664C26.672 41.3901 38.6099 53.328 53.336 53.328Z" fill="#C7D2FE"/>
<path d="M19.464 26.6641H17.016C7.616 26.6641 0 34.2881 0 43.6801V62.9841C0 72.3841 7.616 80.0001 17.016 80.0001H36.32C45.72 80.0001 53.336 72.3841 53.336 62.9841V60.5361C34.664 60.5361 19.472 45.3441 19.472 26.6721L19.464 26.6641Z" fill="#4F46E5"/>
<path d="M53.336 53.336V43.688C53.336 34.288 45.72 26.672 36.32 26.672H26.672C26.672 41.4 38.608 53.336 53.336 53.336Z" fill="#818CF8"/>
</svg>
